<mxfile host="app.diagrams.net" modified="2024-05-20T01:32:42.410Z" agent="Mozilla/5.0 (Windows NT 10.0; Win64; x64) AppleWebKit/537.36 (KHTML, like Gecko) Chrome/125.0.0.0 Safari/537.36" version="24.4.4" etag="pFuP_Cu0p2GpcFS5is2y" type="github">
  <diagram name="第 1 页" id="0I_J5m9c2fJ3Y-L08_R3">
    <mxGraphModel>
      <root>
        <mxCell id="0" />
        <mxCell id="1" parent="0" />
      </root>
    </mxGraphModel>
  </diagram>
</mxfile>
